<?xml version="1.0" standalone="no"?>
<!DOCTYPE svg PUBLIC "-//W3C//DTD SVG 20010904//EN"
 "http://www.w3.org/TR/2001/REC-SVG-20010904/DTD/svg10.dtd">
<svg version="1.0" xmlns="http://www.w3.org/2000/svg"
 width="466.000000pt" height="63.000000pt" viewBox="0 0 466.000000 63.000000"
 preserveAspectRatio="xMidYMid meet">

<g transform="translate(0.000000,63.000000) scale(0.100000,-0.100000)"
fill="#000000" stroke="none">
<path d="M1955 616 c-61 -19 -96 -41 -137 -83 -59 -60 -83 -124 -83 -218 0
-62 5 -91 23 -130 29 -63 83 -119 147 -153 43 -23 62 -27 135 -27 70 0 94 5
135 25 112 55 177 160 178 286 0 65 -4 83 -34 141 -69 137 -223 204 -364 159z
m180 -119 c129 -73 141 -257 22 -351 -32 -26 -49 -31 -105 -34 -60 -3 -72 -1
-113 26 -65 42 -104 121 -96 193 8 68 47 132 100 163 56 34 135 35 192 3z"/>
<path d="M5 607 c-3 -7 -4 -143 -3 -302 l3 -290 238 -3 237 -2 0 77 0 77 -55
71 c-30 40 -55 76 -55 80 0 4 25 40 55 80 l55 71 0 77 0 77 -235 0 c-181 0
-237 -3 -240 -13z m355 -102 c0 -3 -31 -47 -69 -98 -39 -51 -66 -96 -62 -102
102 -135 131 -175 131 -179 0 -3 -56 -6 -125 -6 l-125 0 0 195 0 195 125 0
c69 0 125 -2 125 -5z"/>
<path d="M605 607 c-3 -7 -4 -143 -3 -302 l3 -290 55 -3 55 -3 70 92 c39 51
75 99 81 107 8 11 22 -2 68 -65 99 -132 100 -133 173 -133 35 0 63 3 63 8 0 6
-291 388 -411 540 -49 61 -50 62 -100 62 -31 0 -51 -5 -54 -13z m195 -293 c0
-5 -47 -70 -72 -98 -4 -6 -8 39 -8 98 l0 108 40 -51 c22 -28 40 -53 40 -57z"/>
<path d="M1087 613 c-4 -3 -7 -71 -7 -151 l0 -145 48 -63 c26 -35 50 -63 55
-64 4 0 7 52 7 116 0 67 4 113 9 110 5 -4 78 -96 162 -206 l152 -200 54 0 53
0 0 306 0 305 -52 -3 -53 -3 -5 -204 -5 -203 -153 200 c-84 110 -159 203 -168
206 -21 8 -89 8 -97 -1z"/>
<path d="M2462 318 l3 -303 50 0 50 0 3 248 2 247 126 0 126 0 -83 -106 c-45
-59 -82 -113 -83 -120 -2 -20 186 -262 209 -268 30 -8 113 -7 118 1 3 5 -40
66 -95 136 l-99 128 71 93 70 92 0 77 0 77 -235 0 -235 0 2 -302z"/>
<path d="M3055 608 c-3 -7 -4 -144 -3 -303 l3 -290 50 -3 c28 -1 55 1 61 5 6
5 42 49 80 98 38 50 72 93 76 95 4 3 35 -31 68 -75 98 -128 94 -125 167 -125
35 0 63 3 63 8 0 4 -103 140 -228 302 l-227 295 -53 3 c-36 2 -54 -1 -57 -10z
m155 -236 c19 -25 36 -50 38 -54 4 -9 -70 -108 -80 -108 -4 0 -8 47 -8 105 0
58 3 105 8 105 4 -1 23 -22 42 -48z"/>
<path d="M3537 613 c-4 -3 -7 -71 -7 -151 l0 -145 48 -63 c26 -35 50 -63 55
-64 4 0 7 52 7 116 0 67 4 113 9 110 5 -4 78 -96 162 -206 l152 -200 54 0 53
0 0 306 0 305 -52 -3 -53 -3 -5 -204 -5 -203 -153 200 c-84 110 -160 203 -168
206 -21 8 -89 8 -97 -1z"/>
<path d="M4174 606 c-3 -8 -4 -31 -2 -52 l3 -39 82 -3 83 -3 2 -247 3 -247 50
0 50 0 3 248 2 247 100 0 c55 0 100 4 100 9 0 4 -16 29 -35 55 l-36 46 -200 0
c-161 0 -201 -3 -205 -14z"/>
</g>
</svg>
